<svg width="14" height="14" viewBox="0 0 14 14" fill="none" xmlns="http://www.w3.org/2000/svg">
<path d="M4.10084 0.0492005C3.35604 0.0843405 2.84742 0.2032 2.40278 0.37792C1.9426 0.557261 1.55256 0.797921 1.16448 1.1874C0.776398 1.57688 0.537418 1.9672 0.359338 2.42808C0.186998 2.8737 0.0702379 3.38274 0.0373379 4.12796C0.00443795 4.87318 -0.00284206 5.11272 0.000797945 7.01364C0.00443794 8.91456 0.0128379 9.15284 0.0489579 9.8996C0.0845179 10.6443 0.202958 11.1527 0.377678 11.5975C0.557298 12.0577 0.797678 12.4476 1.1873 12.8358C1.57692 13.224 1.96696 13.4625 2.42896 13.6408C2.87416 13.8129 3.38334 13.9302 4.12842 13.9628C4.8735 13.9954 5.11332 14.003 7.01368 13.9994C8.91404 13.9957 9.1533 13.9873 9.89992 13.9519C10.6465 13.9165 11.1524 13.7972 11.5973 13.6233C12.0575 13.4433 12.4476 13.2033 12.8356 12.8136C13.2235 12.4238 13.4624 12.0332 13.6403 11.572C13.8128 11.1268 13.93 10.6177 13.9623 9.87314C13.9949 9.12596 14.0026 8.8874 13.999 6.98676C13.9953 5.08612 13.9868 4.84784 13.9514 4.10136C13.916 3.35488 13.7974 2.84794 13.6228 2.40288C13.4429 1.9427 13.2028 1.55308 12.8133 1.16458C12.4238 0.77608 12.033 0.537381 11.5719 0.359861C11.1265 0.18752 10.6176 0.0700605 9.87248 0.0378605C9.1274 0.00566047 8.88758 -0.00259953 6.98652 0.00104047C5.08546 0.00468047 4.84746 0.0128005 4.10084 0.0492005ZM4.1826 12.7035C3.5001 12.6738 3.12952 12.5604 2.88256 12.4655C2.55552 12.3395 2.32256 12.1872 2.07644 11.9435C1.83032 11.6997 1.67912 11.4659 1.55144 11.1396C1.45554 10.8926 1.34004 10.5225 1.30812 9.83996C1.2734 9.1023 1.26612 8.88082 1.26206 7.01196C1.258 5.1431 1.26514 4.9219 1.29748 4.18396C1.3266 3.50202 1.4407 3.13102 1.53548 2.8842C1.66148 2.55674 1.81324 2.3242 2.05754 2.07822C2.30184 1.83224 2.53494 1.68076 2.86156 1.55308C3.10824 1.45676 3.4784 1.34224 4.16062 1.30976C4.89884 1.27476 5.12004 1.26776 6.98862 1.2637C8.8572 1.25964 9.07896 1.26664 9.81746 1.29912C10.4994 1.3288 10.8705 1.44178 11.1171 1.53712C11.4443 1.66312 11.6771 1.81446 11.9231 2.05918C12.169 2.3039 12.3207 2.53616 12.4483 2.86348C12.5448 3.10946 12.6593 3.47948 12.6915 4.16212C12.7267 4.90034 12.7346 5.12168 12.738 6.99012C12.7414 8.85856 12.7348 9.08046 12.7024 9.81812C12.6726 10.5006 12.5595 10.8713 12.4644 11.1186C12.3384 11.4455 12.1865 11.6786 11.9421 11.9244C11.6977 12.1703 11.4648 12.3217 11.1381 12.4494C10.8917 12.5456 10.5211 12.6604 9.83944 12.6929C9.10122 12.7276 8.88002 12.7349 7.01074 12.7389C5.14146 12.743 4.92096 12.7354 4.18274 12.7035M9.88914 3.25898C9.88941 3.42513 9.93896 3.58746 10.0315 3.72545C10.124 3.86344 10.2554 3.97089 10.409 4.0342C10.5627 4.09751 10.7316 4.11385 10.8945 4.08114C11.0574 4.04844 11.2069 3.96816 11.3242 3.85046C11.4415 3.73276 11.5212 3.58293 11.5533 3.41991C11.5854 3.25689 11.5685 3.08802 11.5046 2.93464C11.4407 2.78126 11.3328 2.65027 11.1944 2.55823C11.0561 2.4662 10.8936 2.41725 10.7275 2.41758C10.5047 2.41803 10.2913 2.50691 10.1341 2.6647C9.97687 2.82248 9.88877 3.03625 9.88914 3.25898ZM3.40574 7.0072C3.40966 8.9924 5.0219 10.5981 7.00668 10.5943C8.99146 10.5905 10.5982 8.9784 10.5945 6.9932C10.5907 5.008 8.97802 3.40192 6.99296 3.40584C5.0079 3.40976 3.40196 5.02228 3.40574 7.0072ZM4.66658 7.00468C4.66567 6.54318 4.80162 6.09178 5.05726 5.70755C5.31289 5.32332 5.67672 5.02353 6.10274 4.84607C6.52876 4.66862 6.99783 4.62149 7.45064 4.71062C7.90345 4.79976 8.31966 5.02117 8.64663 5.34685C8.97361 5.67253 9.19666 6.08786 9.28759 6.54031C9.37852 6.99277 9.33324 7.46202 9.15748 7.88874C8.98172 8.31546 8.68336 8.68047 8.30015 8.93763C7.91694 9.19478 7.46608 9.33253 7.00458 9.33344C6.69814 9.33408 6.39458 9.27436 6.11124 9.15767C5.82789 9.04098 5.5703 8.86961 5.35319 8.65336C5.13608 8.43711 4.9637 8.1802 4.84589 7.89732C4.72808 7.61444 4.66715 7.31112 4.66658 7.00468Z" fill="white"/>
</svg>
