<svg width="14" height="14" viewBox="0 0 14 14" fill="none" xmlns="http://www.w3.org/2000/svg">
<g clip-path="url(#clip0_0_345)">
<path d="M5.83301 7.58299C6.08352 7.9179 6.40313 8.19501 6.77016 8.39554C7.13719 8.59606 7.54305 8.71531 7.96022 8.74518C8.37739 8.77506 8.7961 8.71487 9.18796 8.56869C9.57982 8.42252 9.93566 8.19378 10.2313 7.89799L11.9813 6.14799C12.5126 5.5979 12.8066 4.86114 12.8 4.0964C12.7933 3.33166 12.4866 2.60012 11.9458 2.05935C11.405 1.51858 10.6735 1.21183 9.90876 1.20519C9.14402 1.19854 8.40726 1.49253 7.85717 2.02382L6.85384 3.02132" stroke="white" stroke-width="1.5" stroke-linecap="round" stroke-linejoin="round"/>
<path d="M8.16629 6.41672C7.91578 6.08181 7.59617 5.80469 7.22914 5.60417C6.86211 5.40364 6.45625 5.2844 6.03908 5.25452C5.62192 5.22465 5.2032 5.28484 4.81134 5.43101C4.41948 5.57719 4.06364 5.80593 3.76796 6.10172L2.01796 7.85172C1.48667 8.40181 1.19268 9.13856 1.19933 9.9033C1.20597 10.668 1.51272 11.3996 2.05349 11.9404C2.59426 12.4811 3.3258 12.7879 4.09054 12.7945C4.85528 12.8012 5.59204 12.5072 6.14213 11.9759L7.13963 10.9784" stroke="white" stroke-width="1.5" stroke-linecap="round" stroke-linejoin="round"/>
</g>
<defs>
<clipPath id="clip0_0_345">
<rect width="14" height="14" fill="white"/>
</clipPath>
</defs>
</svg>
