<svg width="16" height="12" viewBox="0 0 16 12" fill="none" xmlns="http://www.w3.org/2000/svg">
<path fill-rule="evenodd" clip-rule="evenodd" d="M14.3264 3.62882C14.2602 4.86087 13.8929 6.07755 13.3302 7.1862C11.6685 10.3958 8.47404 12.1741 4.80171 11.9865C3.07591 11.8984 1.39648 11.3224 0 10.349C0.239757 10.3808 0.499582 10.4137 0.740391 10.426C2.18524 10.4998 3.59513 10.1012 4.76518 9.29807C3.42172 9.20984 2.265 8.26831 1.91089 6.99518C2.10946 7.04454 2.30909 7.07435 2.50976 7.08459C2.7907 7.09894 3.07375 7.07418 3.3589 7.0103C1.88969 6.64111 0.854342 5.31358 0.973353 3.8489L0.975457 3.80978C1.40432 4.06701 1.87858 4.2285 2.39928 4.27471C1.52779 3.64189 1.05757 2.65698 1.11331 1.62049C1.14276 1.07291 1.31268 0.532508 1.61886 0.0775032C3.14021 2.0966 5.46513 3.39195 8.00632 3.65901C7.95874 3.42126 7.95129 3.18556 7.96392 2.95088C8.05646 1.22992 9.55592 -0.0858188 11.3219 0.00437304C12.1847 0.0484441 13.0086 0.443505 13.577 1.10006C14.3068 1.00006 15.0028 0.780673 15.6438 0.46043C15.3651 1.15216 14.8298 1.75234 14.1476 2.09009C14.7929 2.06422 15.4044 1.91896 16 1.69445C15.5449 2.29873 14.9737 2.81864 14.3284 3.21711C14.3411 3.35503 14.3338 3.49192 14.3264 3.62882Z" fill="white"/>
</svg>
