<svg width="56" height="38" viewBox="0 0 56 38" fill="none" xmlns="http://www.w3.org/2000/svg">
<path d="M10.5633 33.5308C7.98227 33.5308 5.61331 32.3554 4.06108 30.304L0.451245 32.9855C2.82471 36.1274 6.60602 38.0001 10.5633 38.0001C14.8049 38.0001 18.7396 35.9084 21.0905 32.4045L17.3317 29.933C15.8201 32.1855 13.2887 33.5308 10.5633 33.5308Z" fill="white"/>
<path d="M29.9212 7.67604H25.4087V26.0716H29.9212V7.67604Z" fill="white"/>
<path d="M44.7665 33.5308C42.1855 33.5308 39.8165 32.3554 38.2643 30.304L34.6544 32.9855C37.0279 36.1274 40.8092 38.0001 44.7665 38.0001C49.008 38.0001 52.9428 35.9084 55.2937 32.4045L51.5349 29.933C50.0233 32.1855 47.4919 33.5308 44.7665 33.5308Z" fill="white"/>
<path d="M27.665 5.12408C29.0132 5.12408 30.1062 4.04156 30.1062 2.70621C30.1062 1.37085 29.0132 0.28833 27.665 0.28833C26.3167 0.28833 25.2237 1.37085 25.2237 2.70621C25.2237 4.04156 26.3167 5.12408 27.665 5.12408Z" fill="white"/>
<path d="M21.1266 7.38107H10.5633C4.73791 7.38107 0 12.0738 0 17.8436C0 23.6135 4.73791 28.3062 10.5633 28.3062C16.3887 28.3062 21.1266 23.6135 21.1266 17.8436C21.1266 15.3408 20.2331 13.0392 18.7486 11.238L21.1266 7.38107ZM10.5633 23.8369C7.22418 23.8369 4.5123 21.1464 4.5123 17.8436C4.5123 14.5408 7.2287 11.8503 10.5633 11.8503C13.8979 11.8503 16.6143 14.5408 16.6143 17.8436C16.6143 21.1464 13.8979 23.8369 10.5633 23.8369Z" fill="white"/>
<path d="M55.3298 7.38107H44.7665C38.9411 7.38107 34.2032 12.0738 34.2032 17.8436C34.2032 23.6135 38.9411 28.3062 44.7665 28.3062C50.5919 28.3062 55.3298 23.6135 55.3298 17.8436C55.3298 15.3408 54.4363 13.0392 52.9518 11.238L55.3298 7.38107ZM44.7665 23.8369C41.4274 23.8369 38.7155 21.1464 38.7155 17.8436C38.7155 14.5408 41.4319 11.8503 44.7665 11.8503C48.1011 11.8503 50.8175 14.5408 50.8175 17.8436C50.8175 21.1464 48.1011 23.8369 44.7665 23.8369Z" fill="white"/>
</svg>
