<svg width="573" height="191" viewBox="0 0 573 191" fill="none" xmlns="http://www.w3.org/2000/svg">
<path d="M467.264 80.9669V133.041H448.256V84.1254C448.256 77.025 446.401 71.5511 442.513 67.8832C438.693 64.2799 433.96 62.4888 428.382 62.4888C424.936 62.4888 421.56 63.1322 418.24 64.4124C414.83 65.727 412.024 67.9941 409.849 71.1346C407.599 74.3744 406.547 78.808 406.547 84.3174V133.041H387.367V46.8613H404.888L405.885 55.5784L406.129 57.7084L407.604 56.1529C409.559 54.0914 411.767 52.1956 414.272 50.486L413.709 49.66L414.273 50.4859C419.488 46.9257 425.833 45.1114 433.38 45.1114C439.031 45.1114 444.256 46.257 449.051 48.5251L449.049 48.5267L450.263 49.1595C455.364 51.8197 459.475 55.8012 462.597 61.1145C465.695 66.386 467.264 72.9855 467.264 80.9669ZM543.03 87.2594L542.262 87.8072L542.764 88.6057L571.19 133.81H548.075L525.161 95.9426L524.796 95.34L524.106 95.4804C520.919 96.1284 517.603 96.4633 514.222 96.4633H513.222V97.4633V133.767H494.042V3.51821H513.222V76.1439V77.1454L514.223 77.1439C528.8 77.1222 540.964 66.732 543.56 53.0264L563.639 47.1012C563.64 47.2395 563.64 47.3808 563.64 47.5259C563.64 63.8734 555.494 78.3666 543.03 87.2594ZM88.6733 62.6866L88.2979 63.2955L88.7529 63.8474C95.7006 72.2767 99.8794 83.0446 99.8794 94.7531C99.8794 121.743 77.7126 143.712 50.4397 143.712C23.1668 143.712 1 121.743 1 94.7531C1 67.7634 23.1668 45.7943 50.4397 45.7943H99.0881L88.6733 62.6866ZM251.994 62.6866L251.618 63.2955L252.073 63.8474C259.021 72.2767 263.2 83.0446 263.2 94.7531C263.2 121.743 241.033 143.712 213.76 143.712C186.487 143.712 164.32 121.743 164.32 94.7531C164.32 67.7634 186.487 45.7943 213.76 45.7943H262.408L251.994 62.6866ZM83.0271 153.853L99.3072 164.558C88.2092 180.508 70.0232 190 50.4398 190C32.1928 190 14.7419 181.52 3.56731 167.252L19.2019 155.638C26.8069 165.2 38.1355 170.659 50.4398 170.659C63.4527 170.659 75.5666 164.395 83.0271 153.853ZM122.327 133.041V47.2028H141.874V133.041H122.327ZM336.841 133.041V47.2028H356.388V133.041H336.841ZM166.888 167.252L182.522 155.638C190.127 165.2 201.456 170.659 213.76 170.659C226.773 170.659 238.887 164.395 246.347 153.853L262.627 164.558C251.529 180.508 233.343 190 213.76 190C195.513 190 178.062 181.52 166.888 167.252ZM285.625 133.041V1H305.172V133.041H285.625ZM142.757 22.4718C142.757 28.2868 137.995 33.0172 132.1 33.0172C126.206 33.0172 121.443 28.2868 121.443 22.4718C121.443 16.6569 126.206 11.9265 132.1 11.9265C137.995 11.9265 142.757 16.6568 142.757 22.4718ZM357.271 22.4718C357.271 28.2868 352.509 33.0172 346.614 33.0172C340.72 33.0172 335.957 28.2868 335.957 22.4718C335.957 16.6568 340.72 11.9265 346.614 11.9265C352.509 11.9265 357.271 16.6569 357.271 22.4718ZM20.5462 94.7531C20.5462 111.085 33.9518 124.371 50.4397 124.371C66.9056 124.371 80.3332 111.085 80.3332 94.7531C80.3332 78.4209 66.9056 65.1351 50.4397 65.1351C33.9738 65.1351 20.5462 78.4209 20.5462 94.7531ZM183.867 94.7531C183.867 111.085 197.272 124.371 213.76 124.371C230.226 124.371 243.653 111.085 243.653 94.7531C243.653 78.4209 230.226 65.1351 213.76 65.1351C197.294 65.1351 183.867 78.4209 183.867 94.7531Z" stroke="#1830E4" stroke-width="2"/>
</svg>
