<svg width="40" height="40" viewBox="0 0 40 40" fill="none" xmlns="http://www.w3.org/2000/svg">
<circle cx="20" cy="20" r="20" fill="white"/>
<path d="M11.7138 26V14.48H16.3698C16.4818 14.48 16.6204 14.4853 16.7858 14.496C16.9511 14.5013 17.1084 14.5173 17.2578 14.544C17.8978 14.6453 18.4311 14.864 18.8577 15.2C19.2898 15.536 19.6124 15.96 19.8258 16.472C20.0391 16.984 20.1458 17.5493 20.1458 18.168C20.1458 18.792 20.0391 19.36 19.8258 19.872C19.6124 20.384 19.2898 20.808 18.8577 21.144C18.4311 21.48 17.8978 21.6987 17.2578 21.8C17.1084 21.8213 16.9484 21.8373 16.7778 21.848C16.6124 21.8587 16.4764 21.864 16.3698 21.864H13.3858V26H11.7138ZM13.3858 20.28H16.3058C16.4124 20.28 16.5298 20.2747 16.6578 20.264C16.7911 20.2533 16.9164 20.2347 17.0338 20.208C17.3751 20.128 17.6498 19.9813 17.8578 19.768C18.0658 19.5493 18.2151 19.2987 18.3058 19.016C18.3964 18.7333 18.4418 18.4507 18.4418 18.168C18.4418 17.8853 18.3964 17.6053 18.3058 17.328C18.2151 17.0453 18.0658 16.7973 17.8578 16.584C17.6498 16.3653 17.3751 16.216 17.0338 16.136C16.9164 16.104 16.7911 16.0827 16.6578 16.072C16.5298 16.0613 16.4124 16.056 16.3058 16.056H13.3858V20.28ZM22.913 29.84L24.585 25.288L24.609 26.632L20.841 17.36H22.585L25.401 24.52H24.889L27.577 17.36H29.273L24.505 29.84H22.913Z" fill="#AFAFAF"/>
</svg>
