<svg width="60" height="60" viewBox="0 0 60 60" fill="none" xmlns="http://www.w3.org/2000/svg">
<g filter="url(#filter0_d_0_309)">
<circle cx="30" cy="28" r="20" fill="white"/>
</g>
<path d="M26.2221 34.24C25.2941 34.24 24.4781 34.0533 23.7741 33.68C23.0701 33.3013 22.5207 32.7707 22.1261 32.088C21.7314 31.4053 21.5341 30.6027 21.5341 29.68V22.496L23.7421 22.48V29.664C23.7421 30.0427 23.8061 30.3867 23.9341 30.696C24.0621 31.0053 24.2381 31.272 24.4621 31.496C24.6914 31.72 24.9554 31.8933 25.2541 32.016C25.5581 32.1333 25.8807 32.192 26.2221 32.192C26.5741 32.192 26.8994 32.1307 27.1981 32.008C27.5021 31.8853 27.7661 31.712 27.9901 31.488C28.2141 31.264 28.3874 30.9973 28.5101 30.688C28.6381 30.3787 28.7021 30.0373 28.7021 29.664V22.48H30.9101V29.68C30.9101 30.6027 30.7127 31.4053 30.3181 32.088C29.9234 32.7707 29.3741 33.3013 28.6701 33.68C27.9661 34.0533 27.1501 34.24 26.2221 34.24ZM32.3434 34V33.728L36.5834 27.248H32.8234V25.36H39.9434V25.632L35.7194 32.112H39.7834V34H32.3434Z" fill="#051ED6"/>
<defs>
<filter id="filter0_d_0_309" x="0" y="0" width="60" height="60" filterUnits="userSpaceOnUse" color-interpolation-filters="sRGB">
<feFlood flood-opacity="0" result="BackgroundImageFix"/>
<feColorMatrix in="SourceAlpha" type="matrix" values="0 0 0 0 0 0 0 0 0 0 0 0 0 0 0 0 0 0 127 0" result="hardAlpha"/>
<feOffset dy="2"/>
<feGaussianBlur stdDeviation="5"/>
<feComposite in2="hardAlpha" operator="out"/>
<feColorMatrix type="matrix" values="0 0 0 0 0 0 0 0 0 0 0 0 0 0 0 0 0 0 0.08 0"/>
<feBlend mode="normal" in2="BackgroundImageFix" result="effect1_dropShadow_0_309"/>
<feBlend mode="normal" in="SourceGraphic" in2="effect1_dropShadow_0_309" result="shape"/>
</filter>
</defs>
</svg>
