<svg width="56" height="38" viewBox="0 0 56 38" fill="none" xmlns="http://www.w3.org/2000/svg">
<path d="M10.5633 33.5307C7.98227 33.5307 5.61331 32.3553 4.06108 30.3039L0.451245 32.9855C2.82471 36.1274 6.60602 38 10.5633 38C14.8049 38 18.7396 35.9084 21.0905 32.4045L17.3317 29.933C15.8201 32.1855 13.2887 33.5307 10.5633 33.5307Z" fill="#051ED6"/>
<path d="M29.9212 7.67598H25.4087V26.0715H29.9212V7.67598Z" fill="#051ED6"/>
<path d="M44.7665 33.5307C42.1855 33.5307 39.8165 32.3553 38.2643 30.3039L34.6544 32.9855C37.0279 36.1274 40.8092 38 44.7665 38C49.008 38 52.9428 35.9084 55.2937 32.4045L51.5349 29.933C50.0233 32.1855 47.4919 33.5307 44.7665 33.5307Z" fill="#051ED6"/>
<path d="M27.665 5.12402C29.0132 5.12402 30.1062 4.0415 30.1062 2.70615C30.1062 1.37079 29.0132 0.288269 27.665 0.288269C26.3167 0.288269 25.2237 1.37079 25.2237 2.70615C25.2237 4.0415 26.3167 5.12402 27.665 5.12402Z" fill="#051ED6"/>
<path d="M21.1266 7.38101H10.5633C4.73791 7.38101 0 12.0737 0 17.8436C0 23.6134 4.73791 28.3061 10.5633 28.3061C16.3887 28.3061 21.1266 23.6134 21.1266 17.8436C21.1266 15.3408 20.2331 13.0391 18.7486 11.238L21.1266 7.38101ZM10.5633 23.8369C7.22418 23.8369 4.5123 21.1464 4.5123 17.8436C4.5123 14.5408 7.2287 11.8503 10.5633 11.8503C13.8979 11.8503 16.6143 14.5408 16.6143 17.8436C16.6143 21.1464 13.8979 23.8369 10.5633 23.8369Z" fill="#051ED6"/>
<path d="M55.3298 7.38101H44.7665C38.9411 7.38101 34.2032 12.0737 34.2032 17.8436C34.2032 23.6134 38.9411 28.3061 44.7665 28.3061C50.5919 28.3061 55.3298 23.6134 55.3298 17.8436C55.3298 15.3408 54.4363 13.0391 52.9518 11.238L55.3298 7.38101ZM44.7665 23.8369C41.4274 23.8369 38.7155 21.1464 38.7155 17.8436C38.7155 14.5408 41.4319 11.8503 44.7665 11.8503C48.1011 11.8503 50.8175 14.5408 50.8175 17.8436C50.8175 21.1464 48.1011 23.8369 44.7665 23.8369Z" fill="#051ED6"/>
</svg>
